<?xml version="1.0" standalone="no"?>
<!DOCTYPE svg PUBLIC "-//W3C//DTD SVG 20010904//EN"
 "http://www.w3.org/TR/2001/REC-SVG-20010904/DTD/svg10.dtd">
<svg version="1.0" xmlns="http://www.w3.org/2000/svg"
 width="187.000000pt" height="184.000000pt" viewBox="0 0 187.000000 184.000000"
 preserveAspectRatio="xMidYMid meet">

<g transform="translate(0.000000,184.000000) scale(0.100000,-0.100000)"
fill="#000000" stroke="none">
<path d="M0 1820 c0 -12 6 -33 14 -48 19 -36 19 -102 0 -102 -11 0 -14 -30
-14 -163 0 -163 0 -164 26 -188 l26 -24 -23 -5 c-12 -3 -25 -12 -27 -19 -3 -9
0 -11 8 -6 10 6 12 4 7 -7 -3 -9 0 -21 6 -27 8 -8 7 -11 -6 -11 -14 0 -16 -13
-16 -95 0 -92 1 -95 22 -92 18 2 23 -4 25 -30 2 -17 -4 -46 -13 -63 -9 -17
-13 -35 -10 -40 3 -6 2 -10 -4 -10 -5 0 -12 21 -14 48 -2 26 -4 -9 -3 -78 0
-69 5 -128 10 -132 6 -4 22 -4 37 -1 25 5 29 2 40 -38 16 -56 29 -73 43 -59 5
5 20 10 33 10 13 0 26 7 29 15 8 20 24 19 24 -1 0 -11 8 -9 35 12 23 17 34 33
30 43 -2 9 0 23 6 31 9 12 10 11 4 -5 -4 -14 3 -10 25 13 16 18 30 37 30 42 0
5 8 6 17 3 16 -6 16 -5 4 10 -11 15 -11 17 2 17 23 0 39 24 25 38 -9 9 -9 12
0 12 7 0 12 11 12 25 0 14 11 37 24 50 23 23 36 23 36 2 0 -6 -3 -8 -6 -4 -8
7 -28 -12 -37 -35 -4 -12 -2 -15 9 -11 7 3 14 -1 14 -7 0 -9 7 -7 20 5 21 19
27 50 11 59 -5 3 -11 15 -14 26 -3 11 -1 18 3 15 5 -3 16 13 26 35 11 25 24
40 36 40 10 0 18 5 18 11 0 5 4 7 10 4 11 -7 2 -64 -13 -83 -7 -9 -6 -20 3
-37 7 -13 10 -33 7 -44 -7 -29 10 -16 29 20 18 35 50 70 58 62 3 -3 15 15 27
40 20 40 21 52 12 92 -10 44 -9 48 18 78 16 17 29 38 29 47 0 11 2 12 8 2 5
-7 6 -26 4 -43 -3 -19 -7 -26 -12 -19 -4 7 -10 8 -13 3 -8 -13 2 -116 13 -127
12 -12 30 2 30 24 0 10 5 22 11 26 6 3 9 17 6 30 -2 15 3 30 14 40 17 15 19
15 25 0 3 -9 11 -16 17 -16 7 0 7 4 -1 12 -16 16 -15 31 2 25 21 -8 27 29 10
61 -8 15 -14 21 -14 15 0 -15 -9 -16 -30 -3 -12 7 -11 12 8 29 13 10 19 22 13
25 -15 9 -1 46 18 46 9 0 22 5 28 11 9 9 28 15 55 18 9 1 7 63 -3 83 -6 10 -5
19 1 23 13 8 13 45 0 45 -5 0 -10 7 -10 16 0 10 -6 14 -14 11 -10 -4 -13 -1
-9 9 3 9 -2 14 -17 14 -20 0 -21 2 -9 17 12 14 12 16 -1 11 -9 -3 -33 7 -55
23 -21 16 -48 29 -61 29 -27 0 -40 37 -15 43 14 4 14 5 -1 6 -26 2 -22 21 5
22 l22 0 -22 9 c-15 6 -23 18 -23 33 l0 24 -202 2 c-148 1 -204 -2 -209 -11
-5 -8 -11 -9 -21 -1 -8 7 -66 12 -145 12 -128 2 -133 1 -133 -19z m350 -15 c0
-8 -4 -15 -10 -15 -5 0 -10 7 -10 15 0 8 5 15 10 15 6 0 10 -7 10 -15z m-39
-11 c11 -14 11 -18 -4 -29 -14 -10 -16 -21 -11 -54 6 -36 4 -41 -13 -41 -44 0
-60 66 -23 97 11 10 20 23 20 30 0 18 15 16 31 -3z m-66 -23 c-3 -12 -13 -21
-21 -21 -9 0 -12 5 -8 13 23 40 41 46 29 8z m-105 -31 c15 -16 37 -30 49 -30
27 0 27 -26 1 -40 -16 -9 -22 -7 -27 7 -4 10 -11 21 -17 25 -15 11 -56 10 -56
-1 0 -13 -28 -22 -35 -11 -3 4 2 16 12 25 13 13 14 18 3 25 -7 4 -9 13 -6 19
13 20 48 11 76 -19z m304 -74 c-5 -22 -2 -24 42 -31 64 -9 74 -14 74 -37 0
-15 -3 -18 -12 -11 -27 21 -90 34 -185 37 -54 2 -108 1 -120 -1 -36 -8 -27
-26 10 -21 32 5 93 -13 82 -24 -3 -3 28 -31 69 -62 81 -61 87 -70 74 -105 -7
-19 -6 -22 8 -17 10 4 6 -7 -12 -28 -16 -20 -38 -38 -49 -41 -40 -12 -56 -65
-19 -65 10 0 14 -13 14 -47 l0 -48 -20 25 c-10 14 -23 34 -29 45 -28 61 -61
136 -61 141 0 4 -13 23 -28 43 -77 98 -103 181 -65 212 18 15 18 15 120 18 62
1 72 4 78 21 9 30 37 26 29 -4z m-354 -83 c0 -25 -1 -26 -20 -8 -21 19 -18 35
6 35 9 0 14 -10 14 -27z m628 -152 c3 -8 -1 -12 -9 -9 -7 2 -15 10 -17 17 -3
8 1 12 9 9 7 -2 15 -10 17 -17z m142 4 c0 -8 -4 -15 -9 -15 -5 0 -11 7 -15 15
-3 9 0 15 9 15 8 0 15 -7 15 -15z m-110 -14 c0 -12 -20 -25 -27 -18 -7 7 6 27
18 27 5 0 9 -4 9 -9z m44 -62 c-3 -5 -9 -9 -13 -9 -11 0 -21 37 -13 45 9 8 33
-26 26 -36z m-626 -29 c27 -40 29 -57 3 -31 -10 10 -33 22 -50 26 -40 9 -48
23 -19 34 32 13 40 10 66 -29z m628 -73 c1 -15 0 -27 -4 -27 -10 0 -31 48 -24
55 12 11 25 -2 28 -28z m-701 -44 c-3 -50 -12 -57 -31 -26 -9 14 -8 26 2 51
19 44 32 33 29 -25z m680 8 c2 -12 0 -19 -6 -16 -5 4 -9 16 -9 27 0 26 9 19
15 -11z m-405 -75 c0 -6 -7 -20 -15 -30 -8 -11 -15 -31 -15 -45 0 -18 -3 -22
-11 -14 -6 6 -17 9 -24 7 -7 -3 -15 5 -19 18 -11 45 -6 59 26 72 34 15 58 11
58 -8z m-245 -32 c22 -14 46 -52 25 -39 -6 3 -10 1 -10 -4 0 -6 8 -11 18 -12
10 0 12 -3 5 -6 -7 -2 -13 -11 -13 -19 0 -8 -2 -14 -4 -14 -2 0 -11 -3 -20 -6
-26 -10 -62 87 -39 109 9 9 10 9 38 -9z m455 -10 c0 -8 -4 -12 -10 -9 -5 3
-10 10 -10 16 0 5 5 9 10 9 6 0 10 -7 10 -16z m-150 -96 c-18 -25 -20 -32 -9
-39 12 -7 11 -9 -1 -9 -8 0 -25 -12 -37 -27 -44 -50 -21 3 40 94 12 18 24 28
26 22 2 -6 -7 -25 -19 -41z"/>
<path d="M756 1828 c5 -8 2 -9 -9 -5 -16 6 -16 5 -1 -18 9 -14 21 -25 28 -24
7 0 6 2 -1 6 -7 2 -13 9 -13 15 0 6 7 7 16 4 11 -4 15 -2 11 8 -3 8 -1 17 6
20 7 2 -1 5 -16 5 -19 1 -26 -3 -21 -11z"/>
<path d="M867 1818 c-5 -20 -4 -21 6 -7 7 9 21 19 32 22 16 4 14 5 -6 6 -20 1
-28 -5 -32 -21z"/>
<path d="M967 1823 c7 -21 43 -76 55 -84 9 -6 -20 -34 -74 -69 -20 -14 -35
-26 -34 -28 5 -5 56 21 56 28 0 4 14 7 30 7 21 0 29 -5 28 -15 -2 -8 7 -18 20
-23 21 -8 22 -6 17 24 -4 23 -3 28 5 17 5 -8 10 -10 10 -5 0 6 5 3 10 -5 9
-13 12 -12 25 4 8 11 15 16 15 12 0 -5 7 -3 15 4 10 9 15 9 15 1 0 -6 5 -11
11 -11 5 0 7 5 4 11 -13 19 -16 69 -6 69 6 0 11 -4 11 -9 0 -12 42 -1 59 17
12 12 11 13 -4 10 -11 -2 -19 4 -21 15 -2 13 2 17 12 13 8 -3 14 -4 14 -2 0 3
3 11 6 20 5 14 -11 16 -140 16 -134 0 -145 -1 -139 -17z m213 -23 c0 -5 -2
-10 -4 -10 -3 0 -8 5 -11 10 -3 6 -1 10 4 10 6 0 11 -4 11 -10z m20 -30 c0 -5
-4 -10 -10 -10 -5 0 -10 5 -10 10 0 6 5 10 10 10 6 0 10 -4 10 -10z m-74 -65
c-11 -8 -22 -12 -25 -9 -6 6 19 24 34 24 6 -1 1 -7 -9 -15z m-41 -5 c3 -6 -1
-7 -9 -4 -18 7 -21 14 -7 14 6 0 13 -4 16 -10z m-38 -42 c-3 -8 -6 -5 -6 6 -1
11 2 17 5 13 3 -3 4 -12 1 -19z"/>
<path d="M1366 1822 c-3 -10 -5 -66 -5 -125 l1 -108 24 16 c31 20 31 20 39
-14 4 -18 14 -31 28 -35 33 -8 46 9 36 52 -12 53 4 112 38 140 36 29 98 64
143 79 30 10 10 12 -132 12 -151 1 -167 -1 -172 -17z"/>
<path d="M1809 1821 c13 -24 -29 -252 -55 -302 -12 -24 -19 -71 -24 -154 l-7
-120 58 -66 c32 -36 65 -72 74 -79 13 -11 15 28 15 364 l0 376 -35 0 c-32 0
-35 -2 -26 -19z"/>
<path d="M836 1814 c-8 -21 -8 -34 2 -34 4 0 8 11 8 25 2 29 -1 32 -10 9z"/>
<path d="M1682 1809 c-29 -10 -76 -35 -103 -55 -48 -35 -50 -39 -44 -73 4 -20
11 -40 16 -45 12 -13 12 -39 -1 -31 -5 3 -7 0 -4 -8 3 -8 1 -18 -5 -21 -6 -4
-7 -14 -4 -24 6 -15 5 -16 -12 -2 -17 14 -18 13 -12 -30 3 -25 9 -55 12 -65 4
-13 -5 -7 -27 16 -45 50 -75 59 -84 25 -7 -30 2 -60 15 -52 9 6 12 -2 46 -96
15 -43 18 -46 39 -38 15 5 27 5 34 -2 15 -15 41 3 86 61 22 27 43 48 48 45 4
-3 8 0 8 6 0 6 3 9 8 7 4 -3 8 12 8 32 1 22 14 58 33 88 21 34 34 70 37 105 3
29 8 60 11 68 10 28 2 85 -15 98 -19 15 -23 14 -90 -9z"/>
<path d="M1216 1715 c4 -8 10 -12 15 -9 11 6 2 24 -11 24 -5 0 -7 -7 -4 -15z"/>
<path d="M1197 1676 c-4 -10 -5 -21 -2 -24 9 -9 17 6 13 25 -3 17 -4 17 -11
-1z"/>
<path d="M950 1570 c0 -5 7 -10 15 -10 8 0 15 5 15 10 0 6 -7 10 -15 10 -8 0
-15 -4 -15 -10z"/>
<path d="M1354 1541 c3 -18 6 -37 6 -42 0 -5 5 -9 10 -9 15 0 12 24 -6 56
l-16 29 6 -34z"/>
<path d="M940 1540 c0 -6 7 -10 15 -10 8 0 15 2 15 4 0 2 -7 6 -15 10 -8 3
-15 1 -15 -4z"/>
<path d="M1400 1540 c0 -5 7 -10 15 -10 8 0 15 5 15 10 0 6 -7 10 -15 10 -8 0
-15 -4 -15 -10z"/>
<path d="M1150 1365 c0 -8 7 -15 15 -15 8 0 15 4 15 9 0 5 -7 11 -15 15 -9 3
-15 0 -15 -9z"/>
<path d="M1675 1355 c-12 -27 -116 -126 -135 -127 -8 -1 -25 2 -36 6 -18 6
-23 2 -29 -26 -14 -66 -16 -156 -5 -198 9 -32 14 -40 21 -29 5 8 9 27 9 42 0
37 25 45 61 18 l30 -22 19 43 c11 24 20 57 20 74 0 20 9 39 26 55 34 32 50 61
29 53 -8 -4 -15 -1 -15 5 0 6 -7 11 -15 11 -14 0 -13 4 1 33 9 17 21 35 26 38
6 4 8 15 6 25 -5 18 -5 18 -13 -1z m-55 -150 c-7 -9 -15 -13 -17 -11 -7 7 7
26 19 26 6 0 6 -6 -2 -15z"/>
<path d="M1063 1325 c-11 -8 -23 -24 -26 -35 -7 -26 5 -26 21 0 7 11 17 20 23
20 6 0 17 7 25 15 14 13 13 15 -3 15 -10 0 -28 -7 -40 -15z"/>
<path d="M1108 1291 c-14 -12 -30 -21 -36 -21 -5 0 -17 -9 -27 -20 -10 -11
-21 -17 -26 -14 -4 2 -13 -5 -19 -16 -6 -11 -15 -20 -21 -20 -6 0 -18 -7 -26
-16 -14 -13 -14 -17 -2 -25 8 -5 26 -8 42 -6 23 3 27 0 25 -20 -3 -20 7 -28
77 -58 107 -47 129 -43 206 38 56 59 78 104 44 91 -8 -4 -21 -1 -29 5 -9 7
-44 9 -104 6 l-91 -5 10 35 c6 20 9 43 7 52 -2 12 -7 12 -30 -6z"/>
<path d="M796 1173 c-6 -14 -5 -15 5 -6 7 7 10 15 7 18 -3 3 -9 -2 -12 -12z"/>
<path d="M1430 1110 c0 -19 3 -21 12 -12 9 9 9 15 0 24 -9 9 -12 7 -12 -12z"/>
<path d="M1668 1086 c13 -27 18 -31 24 -17 10 24 9 43 -1 36 -5 -3 -12 -1 -16
5 -3 5 -10 10 -15 10 -5 0 -2 -15 8 -34z"/>
<path d="M1737 1090 c-4 -8 -8 -34 -10 -57 -4 -39 -2 -42 21 -40 15 1 29 -5
36 -17 20 -34 62 -72 74 -68 7 2 11 13 11 25 -1 17 -2 18 -6 5 -2 -10 -9 -18
-14 -18 -6 0 -7 5 -4 10 4 6 1 18 -7 27 -8 11 -9 14 -1 10 18 -11 8 27 -13 52
-10 12 -22 21 -26 21 -11 0 -44 34 -51 51 -4 11 -6 11 -10 -1z m98 -100 c3 -5
1 -10 -4 -10 -6 0 -11 5 -11 10 0 6 2 10 4 10 3 0 8 -4 11 -10z"/>
<path d="M1686 1013 c-6 -14 -5 -15 5 -6 7 7 10 15 7 18 -3 3 -9 -2 -12 -12z"/>
<path d="M1680 982 c0 -5 7 -13 16 -16 10 -4 14 -1 12 6 -5 15 -28 23 -28 10z"/>
<path d="M1401 958 c-5 -15 -8 -49 -6 -75 2 -26 4 -55 4 -63 1 -12 4 -11 18 3
20 20 24 110 6 142 -11 19 -12 19 -22 -7z"/>
<path d="M1453 966 c4 -10 7 -34 7 -54 0 -26 3 -33 11 -25 12 12 2 80 -14 90
-7 4 -8 0 -4 -11z"/>
<path d="M1537 963 c-4 -6 2 -34 13 -64 17 -48 19 -50 20 -23 0 37 -24 101
-33 87z"/>
<path d="M640 879 c0 -6 5 -20 12 -32 18 -35 28 -100 16 -115 -6 -7 -8 -15 -6
-18 3 -3 16 11 28 31 19 30 21 44 16 88 -6 49 -9 52 -36 54 -17 1 -30 -2 -30
-8z"/>
<path d="M1303 853 c-18 -22 -33 -47 -33 -55 0 -17 20 -38 36 -38 14 0 37 78
32 111 -3 22 -5 21 -35 -18z"/>
<path d="M1510 845 c-1 -27 -3 -79 -5 -115 -3 -77 4 -103 25 -90 24 15 25 134
1 200 l-20 55 -1 -50z"/>
<path d="M1861 874 c0 -11 3 -14 6 -6 3 7 2 16 -1 19 -3 4 -6 -2 -5 -13z"/>
<path d="M1439 786 c-9 -18 -10 -35 -3 -53 14 -40 29 -33 32 16 4 55 -12 75
-29 37z"/>
<path d="M560 790 c0 -5 5 -10 10 -10 6 0 10 -17 10 -37 0 -21 6 -58 14 -83
l14 -45 12 28 c11 23 10 35 -6 83 -10 31 -27 60 -36 65 -12 6 -18 6 -18 -1z"/>
<path d="M436 735 c-9 -9 -19 -14 -24 -11 -4 2 -9 -4 -9 -15 -2 -28 53 -27 62
2 10 29 -8 44 -29 24z"/>
<path d="M335 729 c-11 -17 1 -21 15 -4 8 9 8 15 2 15 -6 0 -14 -5 -17 -11z"/>
<path d="M1129 713 c-6 -7 -15 -11 -19 -8 -9 6 -20 -19 -20 -44 0 -10 9 -29
19 -43 15 -19 18 -34 14 -66 -4 -33 -2 -42 9 -42 20 0 42 27 58 70 7 19 22 50
32 67 23 38 16 55 -16 47 -17 -4 -25 -1 -28 14 -6 22 -33 25 -49 5z"/>
<path d="M1333 698 c-18 -11 -33 -27 -33 -37 0 -9 -10 -21 -22 -26 -26 -11
-44 -83 -23 -91 17 -7 55 10 93 42 24 20 32 35 32 58 0 18 5 37 11 43 13 13 4
33 -14 32 -7 0 -27 -10 -44 -21z"/>
<path d="M0 598 l0 -93 45 3 c37 3 45 8 45 24 0 10 -4 16 -10 13 -6 -4 -10 9
-10 32 0 44 -30 107 -54 111 -14 3 -16 -9 -16 -90z"/>
<path d="M290 675 c-7 -8 -8 -15 -2 -15 5 0 15 7 22 15 7 8 8 15 2 15 -5 0
-15 -7 -22 -15z"/>
<path d="M667 662 c-24 -26 -22 -51 3 -45 11 3 20 11 20 18 0 8 3 20 6 29 8
22 -9 20 -29 -2z"/>
<path d="M855 660 c6 -18 4 -22 -8 -17 -9 3 -18 -1 -21 -10 -4 -8 -13 -13 -21
-9 -8 3 -15 1 -15 -5 0 -15 27 -22 55 -15 20 5 25 13 25 36 0 16 -5 32 -11 36
-8 4 -9 -1 -4 -16z"/>
<path d="M983 658 c-28 -14 -30 -48 -3 -55 11 -3 20 -10 20 -15 0 -6 -9 -8
-20 -5 -22 6 -26 -3 -9 -20 7 -7 5 -15 -7 -27 -15 -16 -15 -19 -1 -33 12 -13
19 -14 30 -5 8 7 17 9 20 5 4 -3 7 1 7 9 0 9 7 18 15 22 21 8 19 38 -5 63 -12
13 -15 23 -8 25 6 2 8 13 4 26 -8 25 -11 25 -43 10z"/>
<path d="M1794 657 c-3 -9 -12 -17 -20 -17 -9 0 -14 -11 -13 -32 2 -31 2 -31
6 -5 6 37 16 34 29 -8 8 -24 8 -35 1 -35 -7 0 -6 -5 1 -12 17 -17 15 -55 -3
-62 -8 -3 -15 -16 -15 -28 0 -19 -2 -20 -10 -8 -9 13 -10 13 -10 0 0 -20 -40
-46 -41 -28 0 7 -6 -7 -13 -32 -12 -45 -16 -132 -6 -127 3 1 20 -12 37 -30 17
-17 37 -32 45 -33 23 -3 58 12 58 25 0 7 7 15 15 19 20 7 19 24 -2 29 -17 4
-17 5 0 6 18 1 25 41 7 41 -5 0 -10 5 -10 11 0 5 4 8 9 5 4 -3 9 65 10 152 2
153 1 157 -21 171 -17 11 -23 11 -26 1 -3 -9 -6 -9 -13 1 -6 11 -9 10 -15 -4z
m-69 -297 c3 -5 1 -10 -4 -10 -6 0 -11 5 -11 10 0 6 2 10 4 10 3 0 8 -4 11
-10z"/>
<path d="M360 619 c-34 -6 -53 -18 -77 -46 -18 -21 -33 -42 -33 -46 0 -4 -7
-19 -16 -32 -14 -21 -18 -22 -30 -10 -16 16 -19 29 -4 20 6 -3 10 -4 10 -1 0
2 3 12 6 20 4 12 2 15 -9 10 -24 -9 -33 34 -10 51 10 8 14 15 8 15 -5 0 -22
-14 -36 -32 l-27 -32 -7 32 c-6 31 -7 31 -27 12 -11 -10 -17 -24 -13 -30 9
-14 -4 -107 -13 -94 -4 5 -20 11 -36 12 -27 4 -28 2 -22 -24 4 -15 17 -36 29
-46 19 -17 20 -21 8 -41 -34 -54 -50 -171 -31 -222 7 -18 7 -33 0 -46 -15 -27
-4 -41 21 -26 17 10 23 9 40 -12 10 -13 19 -30 19 -38 0 -11 15 -13 73 -11 69
3 72 4 72 28 0 20 6 26 27 28 15 2 36 -2 48 -8 13 -7 20 -7 20 0 0 5 7 10 16
10 9 0 28 9 44 20 l27 19 23 -24 c14 -15 30 -23 41 -20 11 4 20 -3 29 -25 l12
-30 160 0 c142 0 161 2 179 19 11 10 16 22 11 25 -5 3 -15 -1 -22 -9 -26 -31
-69 -5 -70 43 0 13 -6 22 -15 22 -11 0 -14 -7 -9 -25 7 -26 -10 -35 -19 -11
-6 15 -50 16 -64 3 -14 -14 -21 -6 -28 36 -4 23 -7 46 -6 51 1 4 -3 14 -10 22
-9 11 -15 11 -34 -2 -16 -10 -25 -12 -30 -4 -3 6 -11 8 -16 4 -6 -4 -4 -13 6
-24 14 -15 14 -22 5 -41 -9 -16 -14 -18 -20 -9 -4 7 -12 10 -18 6 -6 -3 -13
-2 -16 3 -4 5 -2 12 3 15 6 4 4 17 -5 34 -13 26 -12 29 17 56 18 17 28 34 24
43 -3 9 5 26 20 40 13 14 22 29 19 34 -6 11 -24 2 -24 -12 0 -21 -71 -73 -122
-91 -18 -6 -41 -20 -52 -30 -11 -10 -26 -18 -33 -18 -7 0 -10 -6 -7 -15 4 -11
2 -13 -9 -9 -8 3 -23 -3 -33 -14 -25 -25 -62 -44 -73 -37 -5 3 -12 -1 -14 -7
-4 -9 -8 -10 -14 -2 -4 6 -14 13 -21 15 -10 3 -8 11 8 29 12 14 17 26 11 28
-12 4 -15 45 -4 55 3 4 12 -1 19 -11 8 -10 13 -12 14 -4 0 6 7 12 17 12 9 0
13 3 10 7 -9 8 40 33 64 33 24 0 24 16 0 37 -17 14 -17 18 -5 30 7 8 19 11 25
7 8 -4 9 -3 5 4 -4 7 -2 12 3 12 6 0 11 7 11 16 0 8 4 13 9 9 6 -3 14 3 20 12
5 10 13 15 16 11 4 -4 0 -14 -9 -23 -25 -25 -19 -34 16 -24 18 5 34 9 35 9 2
0 3 5 3 11 0 6 -6 9 -14 6 -9 -4 -13 2 -13 18 0 21 2 23 25 14 13 -5 27 -7 30
-4 3 3 0 5 -6 5 -7 0 -2 10 10 22 14 14 18 23 10 26 -7 2 -12 10 -12 18 0 7 6
11 14 8 10 -4 12 2 9 20 -6 29 -15 33 -32 12 -7 -8 -22 -17 -34 -20 -26 -7
-70 -72 -61 -89 5 -8 2 -8 -7 1 -16 14 -33 16 -24 2 3 -5 1 -10 -4 -10 -19 0
-12 18 19 50 16 17 39 53 51 81 18 40 20 54 11 74 -12 27 -14 27 -82 14z m37
-15 c-3 -3 -12 -4 -19 -1 -8 3 -5 6 6 6 11 1 17 -2 13 -5z m29 -42 c-8 -24
-94 -112 -110 -112 -6 0 4 12 22 26 17 14 44 46 58 70 26 45 41 53 30 16z
m-51 8 c-3 -5 -13 -10 -20 -10 -19 0 -85 -59 -85 -75 0 -8 7 -20 15 -28 12
-13 12 -17 -5 -32 -11 -10 -20 -24 -20 -32 0 -8 -4 -11 -10 -8 -5 3 -10 -3
-10 -15 0 -11 -7 -23 -16 -27 -11 -4 -14 -13 -10 -29 8 -32 -10 -31 -40 2 -26
27 -30 25 -12 -9 11 -21 10 -21 -7 -7 -14 11 -17 11 -11 1 5 -8 3 -16 -5 -21
-10 -7 -7 -13 12 -30 22 -19 22 -20 2 -11 -31 15 -32 20 -23 71 5 28 4 50 -2
57 -7 9 0 14 31 19 23 4 44 10 47 15 2 4 11 6 18 3 14 -5 18 1 31 60 12 54 61
100 123 115 2 1 0 -3 -3 -9z m-238 -62 c-3 -8 -6 -5 -6 6 -1 11 2 17 5 13 3
-3 4 -12 1 -19z m173 -228 c0 -5 -7 -10 -15 -10 -8 0 -15 5 -15 10 0 6 7 10
15 10 8 0 15 -4 15 -10z m-123 -16 c-3 -3 -12 -4 -19 -1 -8 3 -5 6 6 6 11 1
17 -2 13 -5z m-84 -104 c3 -11 1 -18 -4 -14 -5 3 -9 12 -9 20 0 20 7 17 13 -6z
m77 -35 c0 -8 -4 -15 -10 -15 -5 0 -7 7 -4 15 4 8 8 15 10 15 2 0 4 -7 4 -15z"/>
<path d="M145 370 c-3 -5 -1 -10 4 -10 6 0 11 5 11 10 0 6 -2 10 -4 10 -3 0
-8 -4 -11 -10z"/>
<path d="M1421 577 c-14 -35 -75 -97 -97 -97 -11 0 -31 -15 -45 -33 -34 -42
-138 -94 -226 -112 -121 -26 -152 -15 -98 35 16 15 31 21 45 17 12 -3 47 5 78
18 32 12 76 28 99 35 23 7 45 20 48 28 9 24 -4 28 -33 10 -64 -41 -71 -42 -92
-23 -19 17 -24 18 -53 5 -18 -7 -51 -13 -74 -13 -146 3 -163 1 -163 -16 0 -24
-24 5 -26 32 -2 33 -15 67 -25 67 -8 0 -49 -76 -49 -91 0 -4 16 -5 35 -2 31 5
35 3 35 -15 0 -12 10 -26 21 -33 22 -11 22 -11 -5 -34 l-28 -24 31 -16 c26
-13 29 -18 20 -33 -8 -12 -23 -17 -57 -16 -26 1 -54 4 -62 7 -39 14 -100 14
-111 1 -15 -19 -14 -19 51 -30 67 -11 247 1 317 21 78 23 76 24 69 -53 -10
-99 -22 -128 -64 -154 -20 -12 -44 -30 -54 -40 -17 -17 0 -18 435 -18 395 1
449 2 432 15 -11 8 -26 20 -33 26 -8 6 -27 13 -44 14 -44 4 -95 61 -101 112
-8 66 -23 86 -60 79 -37 -6 -83 24 -74 49 4 8 2 17 -2 20 -15 9 6 74 48 156
42 80 53 110 25 71 -8 -12 -25 -22 -37 -22 -11 0 -38 -17 -59 -37 -47 -46 -62
-36 -21 15 40 50 46 70 28 88 -13 14 -16 13 -24 -9z"/>
<path d="M577 566 c-6 -16 2 -28 14 -20 12 7 11 34 0 34 -5 0 -11 -6 -14 -14z"/>
<path d="M536 525 c4 -8 10 -15 16 -15 5 0 7 -4 4 -9 -3 -5 1 -12 9 -15 11 -4
14 -13 9 -31 -4 -15 -2 -25 5 -25 10 0 15 13 13 31 -1 4 3 21 8 39 7 26 7 31
-5 26 -8 -3 -15 -1 -15 4 0 6 -11 10 -25 10 -18 0 -23 -4 -19 -15z"/>
<path d="M1740 490 c0 -5 5 -10 10 -10 6 0 10 5 10 10 0 6 -4 10 -10 10 -5 0
-10 -4 -10 -10z"/>
<path d="M531 434 c0 -11 3 -14 6 -6 3 7 2 16 -1 19 -3 4 -6 -2 -5 -13z"/>
<path d="M646 412 c-9 -8 -7 -32 2 -32 4 0 17 8 29 18 l23 17 -25 1 c-13 1
-26 -1 -29 -4z"/>
<path d="M380 311 c0 -5 9 -7 20 -4 11 3 20 7 20 9 0 2 -9 4 -20 4 -11 0 -20
-4 -20 -9z"/>
<path d="M448 43 c-15 -4 -15 -6 3 -24 19 -19 59 -26 59 -11 0 9 -34 43 -41
41 -2 -1 -12 -3 -21 -6z"/>
<path d="M398 8 c5 -5 16 -8 23 -6 8 3 3 7 -10 11 -17 4 -21 3 -13 -5z"/>
</g>
</svg>
